<?xml version="1.0" encoding="UTF-8" standalone="no"?>
<svg
   xmlns:dc="http://purl.org/dc/elements/1.1/"
   xmlns:cc="http://creativecommons.org/ns#"
   xmlns:rdf="http://www.w3.org/1999/02/22-rdf-syntax-ns#"
   xmlns:svg="http://www.w3.org/2000/svg"
   xmlns="http://www.w3.org/2000/svg"
   width="23"
   height="22"
   viewBox="0 0 23 22"
   version="1.1"
   id="svg12">
  <metadata
     id="metadata18">
    <rdf:RDF>
      <cc:Work
         rdf:about="">
        <dc:format>image/svg+xml</dc:format>
        <dc:type
           rdf:resource="http://purl.org/dc/dcmitype/StillImage" />
        <dc:title></dc:title>
      </cc:Work>
    </rdf:RDF>
  </metadata>
  <defs
     id="defs16" />
  <path
     d="M 19.941,0 H 2.829 C 1.479,0 0.385,1.094 0.385,2.444 v 17.112 c 0,1.35 1.094,2.444 2.444,2.444 h 17.112 c 1.35,0 2.444,-1.094 2.444,-2.444 V 2.444 C 22.385,1.094 21.291,0 19.941,0 Z M 7.718,17.111 H 4.635 V 8.556 H 7.718 Z M 6.122,6.987 C 5.18,6.987 4.55,6.359 4.55,5.521 c 0,-0.839 0.629,-1.467 1.676,-1.467 0.942,0 1.572,0.628 1.572,1.467 0,0.838 -0.628,1.466 -1.676,1.466 z m 12.596,10.124 h -2.983 v -4.676 c 0,-1.293 -0.796,-1.591 -1.094,-1.591 -0.298,0 -1.293,0.199 -1.293,1.59 v 4.677 H 10.263 V 8.556 h 3.084 V 9.75 c 0.397,-0.697 1.193,-1.194 2.685,-1.194 1.492,0 2.686,1.194 2.686,3.879 z"
     id="path2"
     style="fill:#0078ba;" />
</svg>
